<svg id="Camada_1" data-name="Camada 1" xmlns="http://www.w3.org/2000/svg" viewBox="0 0 1500 1705.46"><path d="M68.68,1419a95.24,95.24,0,0,1-35.42-42.12q-11.73-26.57-11.72-59.59t11.72-59.59a95.3,95.3,0,0,1,35.42-42.12q23.7-15.54,58.16-15.55,52.64,0,69.4,16.75a35.52,35.52,0,0,1,10,19.86q1.91,11.73,1.92,42.36h-9.58q-1.92-29.67-18.66-44.75t-43.56-15.08q-34.45,0-51.93,27.28T67,1317.33q0,43.56,17.47,70.84t51.93,27.28q24.41,0,40.21-9.33t29.19-29l9.57,7.18q-15.8,26.81-37.33,38.53t-51.21,11.73Q92.37,1434.6,68.68,1419Z"/><path d="M288.13,1428.13q-15.79-6.45-27-21.29t-11.25-39.25q0-36.37,33.74-51.7t88.31-15.31h14.36q0-46.9-12.92-64.14T336,1219.21q-21.54,0-34.46,9.09t-18.19,31.59H261.81q0-16.26,1.91-25.6t10-17.47q8.61-8.62,28.48-12.69a216.94,216.94,0,0,1,43.32-4.06q38.76,0,61.26,20.82t22.5,79.69v129.23H405.4l-16.76-21.54h-2.39q-8.61,11-25.37,18.67t-41.64,7.66A81.73,81.73,0,0,1,288.13,1428.13Zm79-22.73q10.53-7.65,19.15-21.06v-64.62H371.89q-35.43,0-56,13.17t-20.58,34.7q0,22,13.16,33.74t32.31,11.73Q356.58,1413.06,367.1,1405.4Z"/><path d="M499.68,1262.29q0-24.4-6.7-36.14t-26.8-11.72h-4.79v-9.58h38.29q18.18,0,27.52,5t13.16,16.51h2.4q8.61-11,23.21-18.67t34.22-7.65q19.14,0,28.72,7.18,8.13,6.23,16.75,21.53l-19.14,14.36q-5.28-7.17-15.32-10.77a68.17,68.17,0,0,0-23-3.59,54.5,54.5,0,0,0-26.33,6.47,51.67,51.67,0,0,0-19.14,17.47v177.09H499.68Z"/><path d="M691.85,1401.57q-22.26-33-22.25-84.24t23.21-84.24q23.21-33,67.73-33a121.54,121.54,0,0,1,32.06,3.82,164.56,164.56,0,0,1,27.76,10.54v-43.08q0-24.42-6.7-36.14t-26.8-11.73h-9.57v-9.57h43.07q17.71,0,26.57,4.55T859.61,1135q3.82,12,3.83,36.38v258.46H839.51l-16.75-21.54h-2.4a82.24,82.24,0,0,1-24.65,19.15q-14.12,7.17-40,7.18Q714.11,1434.6,691.85,1401.57Zm107.93,6.7q10.05-7.18,20.58-21.54V1233.57Q806,1226.86,795.48,1223a60.13,60.13,0,0,0-20.59-3.83q-30.63,0-45.23,26.81t-14.59,71.31q0,44,13.88,71.08t41.16,27Q789.73,1415.45,799.78,1408.27Z"/><path d="M932.36,1428.85a25.36,25.36,0,0,1-7.66-18.66A25.89,25.89,0,0,1,969,1392a26.28,26.28,0,0,1-.24,36.85,25.42,25.42,0,0,1-36.37,0Z"/><path d="M1047.94,1401.57q-22.26-33-22.25-84.24t23.21-84.24q23.2-33,67.73-33a121.54,121.54,0,0,1,32.06,3.82,164.56,164.56,0,0,1,27.76,10.54v-43.08q0-24.42-6.7-36.14t-26.8-11.73h-9.57v-9.57h43.07q17.71,0,26.57,4.55T1215.7,1135q3.83,12,3.83,36.38v258.46H1195.6l-16.75-21.54h-2.4a82.24,82.24,0,0,1-24.65,19.15q-14.11,7.17-40,7.18Q1070.2,1434.6,1047.94,1401.57Zm107.93,6.7q10.05-7.18,20.58-21.54V1233.57q-14.35-6.71-24.88-10.53a60.13,60.13,0,0,0-20.59-3.83q-30.63,0-45.23,26.81t-14.59,71.31q0,44,13.88,71.08t41.16,27Q1145.82,1415.45,1155.87,1408.27Z"/><path d="M1304.24,1511.18q23.44,0,38.53-10.77t26.09-39.49l9.57-26.32-76.58-186.67q-13.41-34.47-52.65-38.29v-9.57h40.68q41.64,0,57.44,38.29l54.56,132.58,60.31-166.09h23.93l-93.33,256.07q-13.89,37.8-30.63,51.21t-43.56,13.41h-14.36Z"/><path d="M42.48,1642.14q3.09,5.05,9.62,5T64,1641.36q5.4-5.82,8.7-15.72a208.63,208.63,0,0,0,5.76-21.06,189.83,189.83,0,0,0,3.58-23.8q2.1-23.44,2.1-37.2t-1.12-20.5q14.46,4.64,14.46,29.06,0,10-4.7,40.15t-4.71,44.09A186.69,186.69,0,0,0,89.38,1660q-8-2.67-10.95-9.55t-3-17.55q-4.35,12.08-12.92,19.09t-17.76,7a18.15,18.15,0,0,1-14.88-7.09q-5.69-7.08-5.69-20.84,0-22.89,12-37.63t29.83-14.74a41.79,41.79,0,0,1,10.81,1.54A41.27,41.27,0,0,0,48,1599.88q-8.57,14.88-8.56,29.2Q39.4,1637.09,42.48,1642.14Z"/><path d="M155.93,1655.33a36.79,36.79,0,0,1-17.9,4.22q-10.18,0-17.77-9t-7.58-25.27a57.32,57.32,0,0,1,10-33.13,37.44,37.44,0,0,1,12.85-11.38,35.74,35.74,0,0,1,17.48-4.35q21.06,0,21.06,20.36,0,12.21-9.48,19.16a36.12,36.12,0,0,1-22,7,65.37,65.37,0,0,1-14.88-1.54c-.1.93-.14,2.39-.14,4.35q0,24.86,14.74,24.85,13.89,0,22.6-13.76c3.46.47,5.2,1.73,5.2,3.79Q163.65,1651.12,155.93,1655.33Zm-5.62-71.6q-8.43,0-14.25,9.69a61.32,61.32,0,0,0-7.79,22.74h3.93a36,36,0,0,0,12.92-2.1,21,21,0,0,0,8.42-5.48,21.67,21.67,0,0,0,5.62-14.6,11.82,11.82,0,0,0-2.18-7.44C155.53,1584.67,153.3,1583.73,150.31,1583.73Z"/><path d="M219.46,1583.31a13.19,13.19,0,0,0-8.43,3,9.74,9.74,0,0,0-3.72,8.07,15.56,15.56,0,0,0,3.44,9.62,39.05,39.05,0,0,0,8.35,8q4.92,3.51,10,7.16,11.81,8.72,11.8,18.67a19.62,19.62,0,0,1-8,16.22q-8,6.24-20.42,6.25t-19.24-4.92q-6.81-4.9-6.81-11.58t3.37-10.46a10.54,10.54,0,0,1,8.14-3.79,10.66,10.66,0,0,1,4.78,1.12,14.59,14.59,0,0,0-3.09,9.27,12.92,12.92,0,0,0,3.3,9q3.3,3.64,9.12,3.65a16.16,16.16,0,0,0,9.9-3,9.16,9.16,0,0,0,4.07-7.65,14.16,14.16,0,0,0-2.38-8.15,23.59,23.59,0,0,0-6-6q-3.58-2.54-7.79-5.62t-7.79-6.11a24.74,24.74,0,0,1-6-7.58,21.34,21.34,0,0,1-2.39-10,20.44,20.44,0,0,1,7.58-16.35q7.59-6.39,19.1-6.39t16.85,4.77q5.33,4.77,5.33,10.74a15.7,15.7,0,0,1-3,9.83,9.1,9.1,0,0,1-7.58,3.86,13.46,13.46,0,0,1-5.19-1.26,15.11,15.11,0,0,0,3.65-9.69c0-3.46-1.06-6.08-3.16-7.86A11.77,11.77,0,0,0,219.46,1583.31Z"/><path d="M285.37,1590.26a43.11,43.11,0,0,0-8.21,16,72.55,72.55,0,0,0-2.74,20.28q0,10.82,3.65,17.41t9.76,6.6a22.5,22.5,0,0,0,12-3.65,31,31,0,0,0,10-10.11c3.46.47,5.2,1.73,5.2,3.79a36.57,36.57,0,0,1-9.48,11.51,32.71,32.71,0,0,1-10.6,6,34.65,34.65,0,0,1-10,1.48,23.32,23.32,0,0,1-18.25-8.5q-7.44-8.49-7.44-24.64,0-20.49,11.09-35.24t29.48-14.74q10.11,0,15.31,5.26a16.89,16.89,0,0,1,5.19,12.22,18.62,18.62,0,0,1-3.86,11.86,12,12,0,0,1-9.9,4.92,14.84,14.84,0,0,1-6.45-1.27,21.4,21.4,0,0,0,3.86-7.09,26.75,26.75,0,0,0,1.61-8.91q0-9.69-8-9.69Q290.84,1583.73,285.37,1590.26Z"/><path d="M367.86,1584.93q7.08-8.64,13.19-8.64t9.2,4.56q3.09,4.58,3.09,11.59a20.38,20.38,0,0,1-3.65,12.14q-3.66,5.13-10.67,5.12a16.81,16.81,0,0,1-3.51-.28,24.37,24.37,0,0,0,4.77-14c0-3.36-1.36-5.05-4.07-5.05-2.15,0-4.45,1.26-6.88,3.79a43,43,0,0,0-7,10.53,73,73,0,0,0-5.61,17.55,114.4,114.4,0,0,0-2.25,23.31q0,1.4.7,11.93c-2.43.19-3.84.28-4.21.28q-12.36,0-12.36-12.07,0-2.82,2.95-21.63t3-30a83.6,83.6,0,0,0-2.39-20.57q8.3,3.24,11.59,9.2a28.26,28.26,0,0,1,3.3,13.9,88.41,88.41,0,0,1-1.27,15.23Q360.77,1593.56,367.86,1584.93Z"/><path d="M409.13,1650.91A29.27,29.27,0,0,1,406,1636.8a177.62,177.62,0,0,1,2.25-23.73,178,178,0,0,0,2.25-24,78.83,78.83,0,0,0-.84-13.2,37.74,37.74,0,0,1,4.07-.28c4.21,0,7.25.93,9.12,2.81s2.81,5,2.81,9.26q0,2.11-3.44,22.11t-3.51,33q-.07,13,1.62,16.78Q412.29,1656.73,409.13,1650.91Zm13.27-89.22q-11.79,0-11.79-8,0-2.82,2.1-7.87a30.89,30.89,0,0,1,5.34-.56q11.79,0,11.79,8,0,2.81-2.1,7.86A30.89,30.89,0,0,1,422.4,1561.69Z"/><path d="M473,1550.18q0,6.32-2.74,26.25t-3.72,30.89q4.06-14.74,11.72-22.82t16.64-8.07q9,0,15.44,8.56t6.46,21.91q0,20.92-10.32,35.24t-25.34,14.32a28.39,28.39,0,0,1-8.28-1.27q9-2.24,15.79-10.46a53.21,53.21,0,0,0,9.9-17.83,58.7,58.7,0,0,0,3.09-17.9q0-8.28-2.95-13.83a9.7,9.7,0,0,0-9.13-5.54q-6.18,0-12,7.3T468,1616.16a78,78,0,0,0-3.72,23.24,74.16,74.16,0,0,0,2.67,20.57q-7.44-2.4-11.72-10.11a37.17,37.17,0,0,1-4.29-18.32q0-10.61,4.71-40.79t4.7-44.08a186.9,186.9,0,0,0-1.26-23.59Q472.94,1528.14,473,1550.18Z"/><path d="M579.09,1655.33a36.81,36.81,0,0,1-17.91,4.22q-10.17,0-17.76-9t-7.58-25.27a57.32,57.32,0,0,1,10-33.13,37.44,37.44,0,0,1,12.85-11.38,35.72,35.72,0,0,1,17.48-4.35q21.06,0,21.06,20.36,0,12.21-9.48,19.16a36.12,36.12,0,0,1-22,7,65.37,65.37,0,0,1-14.88-1.54c-.1.93-.15,2.39-.15,4.35q0,24.86,14.75,24.85,13.89,0,22.6-13.76c3.46.47,5.2,1.73,5.2,3.79Q586.81,1651.12,579.09,1655.33Zm-5.62-71.6q-8.43,0-14.25,9.69a61.32,61.32,0,0,0-7.79,22.74h3.93a35.94,35.94,0,0,0,12.91-2.1,21,21,0,0,0,8.43-5.48,21.65,21.65,0,0,0,5.61-14.6,11.81,11.81,0,0,0-2.17-7.44C578.69,1584.67,576.46,1583.73,573.47,1583.73Z"/><path d="M718.78,1586.12c0,3.28-1.4,7.81-4.21,13.62s-6.23,12.17-10.25,19.09-8.05,14.3-12.08,22.11a151.3,151.3,0,0,0-10.24,25.7,92.49,92.49,0,0,0-4.22,26.74,71.19,71.19,0,0,0,1,12.08q-9-2.12-12.15-6.25a15.68,15.68,0,0,1-3.16-9.76q0-8,9.83-30.47-2.1-8.7-5.19-27.3t-6.25-32.36q-3.17-13.77-7.23-20.5c3.55-2.44,6.6-3.65,9.12-3.65q7.31,0,10,7.51t4.71,28.71q2,21.19,4.14,31.17,27.51-51.81,27.52-69.22Q718.78,1579.24,718.78,1586.12Z"/><path d="M756.9,1583.8q9-6.94,18.39-7t15.51,8.21q6.18,8.22,6.18,22.26a69.44,69.44,0,0,1-5.9,28.64q-6.6,14.6-19.09,20.36a34,34,0,0,1-14.88,3.23q-11.37,0-19.94-9.48t-8.56-27.1q0-17.61,7.58-30.53t20.64-18a2.48,2.48,0,0,1,2.8,2.81q-13.89,9.13-17.12,28.64Q747.83,1590.76,756.9,1583.8Zm26.32,27.52q0-13.69-3.44-19.66t-9.83-6q-6.39,0-12.84,6.24a44.24,44.24,0,0,0-10.18,15.45,50.43,50.43,0,0,0-3.72,19.09,36.38,36.38,0,0,0,3.79,17.13q3.79,7.23,11.51,7.23,10.95,0,17.83-12.91A56,56,0,0,0,783.22,1611.32Z"/><path d="M867.88,1576.15q12.07,0,12.08,12.49,0,2.25-2.67,19.73a203,203,0,0,0-2.67,30,82.13,82.13,0,0,0,2.67,22q-8.56-3.37-11.87-9.55t-3.29-15.3q0-3.51,1.54-15.87-4.21,16-13.06,26.89t-16.42,10.88q-16,0-16-23.31a139,139,0,0,1,2.32-21.55q2.31-13.83,2.31-21a55.48,55.48,0,0,0-2-14.46q9,0,13.48,3.09t4.49,11.94q0,4.77-3,19.65t-3,22q0,10.39,6.46,10.39,5.34,0,11.16-8.35t9.76-21.69a93,93,0,0,0,3.93-26.4,74.91,74.91,0,0,0-.84-11.37C865.45,1576.24,866.94,1576.15,867.88,1576.15Z"/><path d="M932.39,1584.93q7.1-8.64,13.2-8.64t9.2,4.56a22.58,22.58,0,0,1-.57,23.73q-3.65,5.13-10.67,5.12a16.94,16.94,0,0,1-3.51-.28,24.31,24.31,0,0,0,4.78-14c0-3.36-1.36-5.05-4.07-5.05q-3.24,0-6.88,3.79a42.48,42.48,0,0,0-7,10.53,72.94,72.94,0,0,0-5.62,17.55,114.4,114.4,0,0,0-2.25,23.31q0,1.4.71,11.93c-2.44.19-3.84.28-4.22.28q-12.35,0-12.35-12.07,0-2.82,3-21.63t2.95-30a83.6,83.6,0,0,0-2.39-20.57q8.28,3.24,11.58,9.2a28.26,28.26,0,0,1,3.3,13.9,89.43,89.43,0,0,1-1.26,15.23Q925.31,1593.56,932.39,1584.93Z"/><path d="M996,1583.31a13.18,13.18,0,0,0-8.42,3,9.74,9.74,0,0,0-3.72,8.07,15.5,15.5,0,0,0,3.44,9.62,38.82,38.82,0,0,0,8.35,8q4.92,3.51,10,7.16,11.79,8.72,11.79,18.67a19.61,19.61,0,0,1-8,16.22q-8,6.24-20.43,6.25t-19.23-4.92q-6.81-4.9-6.81-11.58t3.37-10.46a10.66,10.66,0,0,1,12.91-2.67,14.64,14.64,0,0,0-3.08,9.27,12.92,12.92,0,0,0,3.3,9c2.19,2.43,5.24,3.65,9.12,3.65a16.2,16.2,0,0,0,9.9-3,9.18,9.18,0,0,0,4.07-7.65,14.16,14.16,0,0,0-2.39-8.15,23.55,23.55,0,0,0-6-6q-3.58-2.54-7.79-5.62t-7.8-6.11a24.86,24.86,0,0,1-6-7.58,21.23,21.23,0,0,1-2.39-10,20.44,20.44,0,0,1,7.58-16.35q7.59-6.39,19.1-6.39t16.84,4.77q5.34,4.77,5.34,10.74a15.7,15.7,0,0,1-3,9.83,9.12,9.12,0,0,1-7.58,3.86,13.54,13.54,0,0,1-5.2-1.26,15.06,15.06,0,0,0,3.65-9.69q0-5.19-3.16-7.86A11.74,11.74,0,0,0,996,1583.31Z"/><path d="M1079,1655.33a36.79,36.79,0,0,1-17.9,4.22q-10.19,0-17.76-9t-7.58-25.27a57.39,57.39,0,0,1,10-33.13,37.44,37.44,0,0,1,12.85-11.38,35.74,35.74,0,0,1,17.48-4.35q21.06,0,21.06,20.36,0,12.21-9.48,19.16a36.1,36.1,0,0,1-22,7,65.49,65.49,0,0,1-14.88-1.54c-.1.93-.14,2.39-.14,4.35q0,24.86,14.74,24.85,13.9,0,22.6-13.76,5.2.71,5.2,3.79Q1086.76,1651.12,1079,1655.33Zm-5.62-71.6q-8.42,0-14.25,9.69a61.5,61.5,0,0,0-7.79,22.74h3.93a36,36,0,0,0,12.92-2.1,20.89,20.89,0,0,0,8.42-5.48,21.67,21.67,0,0,0,5.62-14.6,11.82,11.82,0,0,0-2.18-7.44Q1077.92,1583.74,1073.42,1583.73Z"/><path d="M1114.28,1647.19c-.1-1.5-.14-3.91-.14-7.23s1.56-17.52,4.7-42.61,4.7-42.31,4.7-51.67-.56-15.44-1.68-18.25q7.86,3,11.09,8.71a28,28,0,0,1,3.23,13.89q0,8.15-4.07,42.13t-4.07,54.75q0,4.5.56,12.64-7.72-.57-10.95-3.65Q1115,1653.37,1114.28,1647.19Z"/><path d="M1200.34,1580.5c0,3.93-.75,6.65-2.24,8.14s-3.7,2.25-6.6,2.25h-11.8a371.88,371.88,0,0,0-4.77,57.71q0,8.28.35,12t1.9,12.71q-15.87-6.33-15.87-28.93a280.4,280.4,0,0,1,5.2-52.65,64.71,64.71,0,0,0-14.47,4.21,34.39,34.39,0,0,1-.28-4.07q0-6.73,4.43-9t12.7-2.32q12.08-49.41,37.21-49.42,8.28,0,13.62,4.63a14.25,14.25,0,0,1,5.33,11.1,16.14,16.14,0,0,1-3.79,10.88,12.49,12.49,0,0,1-10,4.42,10.88,10.88,0,0,1-4.63-1,17.55,17.55,0,0,0,3.44-5.13,16.69,16.69,0,0,0,1.75-7.44,10.5,10.5,0,0,0-2-6.53,6.36,6.36,0,0,0-5.27-2.67q-14.88,0-23.16,41.56,13.62,0,18.67-4.07A25.53,25.53,0,0,1,1200.34,1580.5Z"/><polyline points="780.09 887.59 1089.68 886.73 1090.22 886.53 1250 540.67 1249.46 540.87 939.87 541.73 939.65 541.24 779.87 887.1"/><polyline points="263.44 1000 671.91 998.86 672.61 998.6 883.42 542.28 882.72 542.55 474.25 543.68 473.96 543.03 263.16 999.35"/><polyline points="1241.33 490.35 1011.84 0.7 1011.07 0 250 1.55 250.76 2.25 480.26 491.9 479.5 492.61 1240.57 491.06"/></svg>