<svg id="Camada_1" data-name="Camada 1" xmlns="http://www.w3.org/2000/svg" viewBox="0 0 2251.6 750"><path d="M942.84,420.75a86.93,86.93,0,0,1-32.38-38.51Q899.73,358,899.74,327.75t10.72-54.48a87.07,87.07,0,0,1,32.38-38.52q21.67-14.2,53.18-14.22,48.13,0,63.46,15.32a32.44,32.44,0,0,1,9.19,18.16q1.74,10.73,1.75,38.73h-8.75q-1.76-27.12-17.07-40.92T1004.77,238q-31.5,0-47.48,24.94t-16,64.77q0,39.84,16,64.78t47.48,24.94q22.32,0,36.77-8.53t26.69-26.48L1077,389q-14.43,24.51-34.13,35.23T996,435Q964.51,435,942.84,420.75Z"/><path d="M1143.5,429.07a58.71,58.71,0,0,1-24.73-19.48q-10.29-13.56-10.28-35.88,0-33.25,30.85-47.27t80.75-14h13.13q0-42.88-11.82-58.65T1187.27,238q-19.69,0-31.52,8.31t-16.63,28.89h-19.69q0-14.88,1.75-23.42t9.19-16q7.88-7.87,26-11.6a198.21,198.21,0,0,1,39.61-3.72q35.45,0,56,19t20.57,72.87V430.6h-21.89l-15.31-19.69h-2.19Q1225.35,421,1210,428T1172,435A74.75,74.75,0,0,1,1143.5,429.07Zm72.21-20.79q9.63-7,17.51-19.25V329.94h-13.13q-32.4,0-51.21,12t-18.81,31.73q0,20.13,12,30.85t29.54,10.72Q1206.09,415.28,1215.71,408.28Z"/><path d="M1336.94,277.43q0-22.32-6.13-33.05t-24.51-10.72h-4.38v-8.75h35q16.62,0,25.16,4.59t12,15.1h2.18q7.89-10.07,21.23-17.07t31.29-7q17.51,0,26.26,6.57,7.44,5.68,15.32,19.69l-17.51,13.13q-4.82-6.57-14-9.85a62.24,62.24,0,0,0-21-3.28,49.82,49.82,0,0,0-24.07,5.91,47.39,47.39,0,0,0-17.51,16V430.6h-39.38Z"/><path d="M1512.65,404.78q-20.36-30.19-20.35-77t21.23-77q21.21-30.19,61.92-30.2a110.94,110.94,0,0,1,29.33,3.5,151.57,151.57,0,0,1,25.38,9.63V194.27q0-22.32-6.13-33t-24.51-10.72h-8.75v-8.76h39.39q16.18,0,24.29,4.16t11.6,15.1q3.5,11,3.5,33.26V430.6h-21.88l-15.32-19.69h-2.19a75.18,75.18,0,0,1-22.54,17.5q-12.91,6.57-36.54,6.57Q1533,435,1512.65,404.78Zm98.69,6.13q9.2-6.57,18.82-19.7v-140Q1617,245,1607.4,241.54a55,55,0,0,0-18.82-3.5q-28,0-41.35,24.51t-13.35,65.2q0,40.28,12.69,65t37.64,24.72Q1602.15,417.47,1611.34,410.91Z"/><path d="M1732.56,429.73a23.22,23.22,0,0,1-7-17.07A23.67,23.67,0,0,1,1766,396a24,24,0,0,1-.22,33.7,23.25,23.25,0,0,1-33.26,0Z"/><path d="M1838.25,404.78q-20.36-30.19-20.35-77t21.22-77q21.23-30.19,61.93-30.2a110.81,110.81,0,0,1,29.32,3.5,151.67,151.67,0,0,1,25.39,9.63V194.27q0-22.32-6.13-33t-24.51-10.72h-8.75v-8.76h39.39q16.18,0,24.29,4.16t11.59,15.1q3.51,11,3.51,33.26V430.6h-21.89L1958,410.91h-2.19a75.18,75.18,0,0,1-22.54,17.5Q1920.3,435,1896.67,435,1858.6,435,1838.25,404.78Zm98.69,6.13q9.19-6.57,18.82-19.7v-140q-13.14-6.13-22.76-9.63a55,55,0,0,0-18.82-3.5q-28,0-41.36,24.51t-13.35,65.2q0,40.28,12.7,65t37.63,24.72Q1927.74,417.47,1936.94,410.91Z"/><path d="M2072.6,505q21.45,0,35.23-9.84t23.86-36.11l8.75-24.07-70-170.68q-12.27-31.52-48.15-35v-8.75h37.2q38.09,0,52.52,35l49.89,121.23L2217,224.91h21.88l-85.34,234.14q-12.71,34.56-28,46.83t-39.83,12.25H2072.6Z"/><path d="M918.89,624.75q2.82,4.62,8.79,4.62T938.6,624q4.93-5.32,7.95-14.37a192,192,0,0,0,5.27-19.26,173,173,0,0,0,3.27-21.76q1.93-21.43,1.93-34a124.89,124.89,0,0,0-1-18.74q13.21,4.23,13.22,26.57,0,9.12-4.3,36.72t-4.3,40.31a170.19,170.19,0,0,0,1.16,21.56q-7.32-2.43-10-8.73t-2.69-16q-4,11-11.81,17.46T921,640.15a16.62,16.62,0,0,1-13.61-6.48q-5.21-6.48-5.2-19.06,0-20.93,11-34.41t27.28-13.48a38.27,38.27,0,0,1,9.88,1.41,37.77,37.77,0,0,0-26.44,18q-7.85,13.6-7.83,26.7Q916.07,620.13,918.89,624.75Z"/><path d="M1022.62,636.82a33.76,33.76,0,0,1-16.37,3.85q-9.32,0-16.24-8.22t-6.93-23.11a52.43,52.43,0,0,1,9.11-30.29,34.09,34.09,0,0,1,11.75-10.4,32.68,32.68,0,0,1,16-4q19.26,0,19.26,18.61,0,11.18-8.67,17.53a33.08,33.08,0,0,1-20.09,6.35,60,60,0,0,1-13.61-1.41c-.08.86-.12,2.18-.12,4q0,22.72,13.48,22.72,12.71,0,20.66-12.58,4.76.64,4.75,3.47Q1029.69,633,1022.62,636.82Zm-5.14-65.48q-7.69,0-13,8.86a56.25,56.25,0,0,0-7.12,20.8h3.59a32.7,32.7,0,0,0,11.81-1.93,19.15,19.15,0,0,0,7.71-5,19.82,19.82,0,0,0,5.13-13.35,10.81,10.81,0,0,0-2-6.81Q1021.59,571.35,1017.48,571.34Z"/><path d="M1080.71,571a12.08,12.08,0,0,0-7.71,2.7,8.91,8.91,0,0,0-3.4,7.38,14.19,14.19,0,0,0,3.15,8.79,35.3,35.3,0,0,0,7.64,7.32q4.48,3.21,9.11,6.55,10.79,7.95,10.78,17.07A17.94,17.94,0,0,1,1093,635.6q-7.32,5.7-18.68,5.71t-17.59-4.49q-6.23-4.5-6.23-10.59t3.08-9.57a9.79,9.79,0,0,1,11.82-2.44,13.28,13.28,0,0,0-2.83,8.48,11.79,11.79,0,0,0,3,8.21,10.65,10.65,0,0,0,8.34,3.34,14.77,14.77,0,0,0,9-2.76,8.39,8.39,0,0,0,3.73-7,12.88,12.88,0,0,0-2.19-7.44,21.49,21.49,0,0,0-5.45-5.52q-3.27-2.31-7.13-5.14t-7.12-5.58a22.82,22.82,0,0,1-5.46-6.93,19.61,19.61,0,0,1-2.18-9.18,18.68,18.68,0,0,1,6.93-15q6.93-5.84,17.46-5.84t15.41,4.36q4.88,4.37,4.87,9.82a14.36,14.36,0,0,1-2.69,9,8.34,8.34,0,0,1-6.93,3.53,12.28,12.28,0,0,1-4.75-1.15,13.82,13.82,0,0,0,3.33-8.86c0-3.17-1-5.56-2.88-7.19A10.76,10.76,0,0,0,1080.71,571Z"/><path d="M1141,577.31a39.49,39.49,0,0,0-7.51,14.64,66.53,66.53,0,0,0-2.5,18.55q0,9.88,3.33,15.92t8.93,6a20.57,20.57,0,0,0,11-3.34,28.47,28.47,0,0,0,9.12-9.24c3.16.43,4.75,1.59,4.75,3.47a33.27,33.27,0,0,1-8.67,10.52,30.07,30.07,0,0,1-9.69,5.46,31.53,31.53,0,0,1-9.12,1.35,21.32,21.32,0,0,1-16.68-7.77q-6.81-7.77-6.81-22.53,0-18.74,10.14-32.22t27-13.48q9.25,0,14,4.81a15.47,15.47,0,0,1,4.75,11.17,17.05,17.05,0,0,1-3.53,10.85,11,11,0,0,1-9.05,4.49,13.69,13.69,0,0,1-5.91-1.15,19.55,19.55,0,0,0,3.53-6.49,24.42,24.42,0,0,0,1.48-8.15q0-8.85-7.32-8.86Q1146,571.34,1141,577.31Z"/><path d="M1216.4,572.44q6.48-7.91,12.07-7.9a9.5,9.5,0,0,1,8.41,4.17,20.69,20.69,0,0,1-.52,21.7c-2.22,3.12-5.48,4.68-9.75,4.68a15.74,15.74,0,0,1-3.21-.25,22.3,22.3,0,0,0,4.36-12.84q0-4.62-3.72-4.62-3,0-6.29,3.46a39,39,0,0,0-6.42,9.63,66.67,66.67,0,0,0-5.13,16,103.92,103.92,0,0,0-2.06,21.31c0,.86.21,4.49.64,10.91-2.22.17-3.51.26-3.85.26q-11.29,0-11.3-11,0-2.57,2.7-19.77t2.7-27.41a76.21,76.21,0,0,0-2.19-18.81q7.58,3,10.59,8.41a25.88,25.88,0,0,1,3,12.71A81.58,81.58,0,0,1,1205.3,597Q1209.92,580.34,1216.4,572.44Z"/><path d="M1254.14,632.77a26.78,26.78,0,0,1-2.89-12.9,162.79,162.79,0,0,1,2.06-21.7,162.89,162.89,0,0,0,2-21.95,71,71,0,0,0-.77-12.06,33.18,33.18,0,0,1,3.73-.26c3.85,0,6.63.85,8.34,2.57s2.57,4.53,2.57,8.47q0,1.92-3.15,20.22t-3.21,30.17q-.06,11.86,1.48,15.34Q1257,638.11,1254.14,632.77Zm12.13-81.58q-10.77,0-10.78-7.32a20.34,20.34,0,0,1,1.93-7.19,27.9,27.9,0,0,1,4.87-.51q10.79,0,10.79,7.32a20.39,20.39,0,0,1-1.93,7.19A28,28,0,0,1,1266.27,551.19Z"/><path d="M1312.49,540.66q0,5.77-2.5,24t-3.41,28.24q3.74-13.47,10.72-20.86t15.22-7.38q8.2,0,14.12,7.83t5.9,20q0,19.13-9.43,32.22t-23.17,13.09a26.28,26.28,0,0,1-7.58-1.15q8.22-2.06,14.44-9.57a48.7,48.7,0,0,0,9.06-16.3,53.81,53.81,0,0,0,2.82-16.37,26.66,26.66,0,0,0-2.7-12.64,8.85,8.85,0,0,0-8.34-5.07q-5.66,0-11,6.67T1307.93,601a71.13,71.13,0,0,0-3.4,21.25,67.68,67.68,0,0,0,2.44,18.8,18.58,18.58,0,0,1-10.72-9.24,34,34,0,0,1-3.92-16.75q0-9.69,4.31-37.3t4.3-40.31a170.19,170.19,0,0,0-1.16-21.56Q1312.49,520.51,1312.49,540.66Z"/><path d="M1409.54,636.82a33.73,33.73,0,0,1-16.37,3.85q-9.3,0-16.24-8.22T1370,609.34a52.44,52.44,0,0,1,9.12-30.29,34.05,34.05,0,0,1,11.74-10.4,32.75,32.75,0,0,1,16-4q19.25,0,19.25,18.61,0,11.18-8.66,17.53a33.13,33.13,0,0,1-20.09,6.35,59.92,59.92,0,0,1-13.61-1.41c-.09.86-.13,2.18-.13,4q0,22.72,13.48,22.72,12.71,0,20.67-12.58c3.16.43,4.75,1.59,4.75,3.47Q1416.6,633,1409.54,636.82Zm-5.13-65.48q-7.71,0-13,8.86a56.08,56.08,0,0,0-7.13,20.8h3.6a32.74,32.74,0,0,0,11.81-1.93,19.18,19.18,0,0,0,7.7-5,19.82,19.82,0,0,0,5.13-13.35,10.81,10.81,0,0,0-2-6.81C1409.18,572.2,1407.14,571.34,1404.41,571.34Z"/><path d="M1537.27,573.53q0,4.49-3.85,12.45t-9.37,17.46q-5.52,9.49-11,20.22a138.76,138.76,0,0,0-9.37,23.49,84.63,84.63,0,0,0-3.85,24.46,65.46,65.46,0,0,0,.9,11q-8.22-1.93-11.11-5.72a14.32,14.32,0,0,1-2.89-8.92q0-7.32,9-27.86-1.92-7.95-4.75-25t-5.71-29.6q-2.9-12.57-6.61-18.74c3.25-2.22,6-3.34,8.34-3.34q6.67,0,9.11,6.87t4.31,26.25q1.86,19.39,3.78,28.5,25.17-47.37,25.16-63.29Q1537.28,567.24,1537.27,573.53Z"/><path d="M1572.13,571.41q8.28-6.36,16.81-6.36t14.19,7.51q5.65,7.52,5.65,20.35a63.5,63.5,0,0,1-5.39,26.19q-6,13.35-17.46,18.61a31.09,31.09,0,0,1-13.61,3q-10.39,0-18.23-8.67t-7.83-24.77q0-16.11,6.93-27.93a37,37,0,0,1,18.87-16.43,2.27,2.27,0,0,1,2.57,2.57q-12.7,8.34-15.66,26.19Q1563.85,577.76,1572.13,571.41Zm24.07,25.16q0-12.51-3.15-18t-9-5.46q-5.85,0-11.75,5.71A40.44,40.44,0,0,0,1563,593a46,46,0,0,0-3.4,17.46,33.32,33.32,0,0,0,3.47,15.66q3.47,6.61,10.52,6.61,10,0,16.31-11.81A51.2,51.2,0,0,0,1596.2,596.57Z"/><path d="M1673.61,564.41q11,0,11,11.43,0,2.05-2.44,18a185.16,185.16,0,0,0-2.44,27.4,75,75,0,0,0,2.44,20.16q-7.83-3.09-10.85-8.73a29.45,29.45,0,0,1-3-14q0-3.21,1.42-14.51-3.85,14.64-11.94,24.58t-15,10q-14.64,0-14.64-21.31a127.91,127.91,0,0,1,2.12-19.7,126.86,126.86,0,0,0,2.12-19.2,50.63,50.63,0,0,0-1.8-13.22q8.22,0,12.33,2.82t4.1,10.92q0,4.37-2.69,18t-2.7,20.15q0,9.51,5.91,9.5,4.88,0,10.2-7.63t8.93-19.84a85.23,85.23,0,0,0,3.59-24.13,68.76,68.76,0,0,0-.77-10.4C1671.38,564.5,1672.75,564.41,1673.61,564.41Z"/><path d="M1732.59,572.44q6.5-7.91,12.07-7.9a9.49,9.49,0,0,1,8.41,4.17,20.71,20.71,0,0,1-.51,21.7q-3.35,4.68-9.76,4.68a15.74,15.74,0,0,1-3.21-.25A22.31,22.31,0,0,0,1744,582c0-3.08-1.25-4.62-3.73-4.62-2,0-4.06,1.15-6.29,3.46a39.54,39.54,0,0,0-6.42,9.63,67.11,67.11,0,0,0-5.13,16,104.62,104.62,0,0,0-2.06,21.31c0,.86.22,4.49.65,10.91-2.23.17-3.51.26-3.85.26q-11.31,0-11.3-11,0-2.57,2.69-19.77t2.7-27.41A76.7,76.7,0,0,0,1709,562q7.57,3,10.59,8.41a25.88,25.88,0,0,1,3,12.71,81.57,81.57,0,0,1-1.16,13.93Q1726.11,580.34,1732.59,572.44Z"/><path d="M1790.75,571a12,12,0,0,0-7.7,2.7,8.89,8.89,0,0,0-3.41,7.38,14.19,14.19,0,0,0,3.15,8.79,35.53,35.53,0,0,0,7.64,7.32q4.48,3.21,9.11,6.55,10.79,7.95,10.79,17.07A18,18,0,0,1,1803,635.6q-7.32,5.7-18.68,5.71t-17.59-4.49q-6.23-4.5-6.22-10.59t3.08-9.57a9.59,9.59,0,0,1,7.44-3.46,9.71,9.71,0,0,1,4.37,1,13.28,13.28,0,0,0-2.83,8.48,11.79,11.79,0,0,0,3,8.21,10.66,10.66,0,0,0,8.35,3.34,14.79,14.79,0,0,0,9-2.76,8.38,8.38,0,0,0,3.72-7,13,13,0,0,0-2.18-7.44,21.69,21.69,0,0,0-5.46-5.52q-3.27-2.31-7.12-5.14t-7.13-5.58a22.64,22.64,0,0,1-5.45-6.93,19.5,19.5,0,0,1-2.19-9.18,18.68,18.68,0,0,1,6.93-15q6.95-5.84,17.46-5.84t15.41,4.36q4.88,4.37,4.88,9.82a14.37,14.37,0,0,1-2.7,9,8.34,8.34,0,0,1-6.93,3.53,12.32,12.32,0,0,1-4.75-1.15,13.83,13.83,0,0,0,3.34-8.86c0-3.17-1-5.56-2.89-7.19A10.75,10.75,0,0,0,1790.75,571Z"/><path d="M1866.68,636.82a33.69,33.69,0,0,1-16.36,3.85q-9.32,0-16.24-8.22t-6.94-23.11a52.44,52.44,0,0,1,9.12-30.29,34,34,0,0,1,11.75-10.4,32.68,32.68,0,0,1,16-4q19.26,0,19.26,18.61,0,11.18-8.67,17.53a33.13,33.13,0,0,1-20.09,6.35,60,60,0,0,1-13.61-1.41c-.09.86-.13,2.18-.13,4q0,22.72,13.48,22.72,12.72,0,20.67-12.58,4.75.64,4.75,3.47Q1873.74,633,1866.68,636.82Zm-5.13-65.48q-7.71,0-13,8.86a56.26,56.26,0,0,0-7.13,20.8h3.6a32.74,32.74,0,0,0,11.81-1.93,19,19,0,0,0,7.7-5,19.83,19.83,0,0,0,5.14-13.35,10.87,10.87,0,0,0-2-6.81Q1865.65,571.35,1861.55,571.34Z"/><path d="M1898.91,629.37q-.14-2.05-.13-6.61t4.3-39q4.29-34.41,4.3-47.25t-1.54-16.68q7.19,2.68,10.14,8a25.6,25.6,0,0,1,3,12.71q0,7.46-3.72,38.52t-3.72,50.06q0,4.11.51,11.56-7.07-.51-10-3.34Q1899.54,635,1898.91,629.37Z"/><path d="M1977.6,568.39c0,3.6-.69,6.08-2,7.45s-3.39,2-6,2h-10.78a339.87,339.87,0,0,0-4.37,52.76c0,5.06.11,8.71.32,11s.79,6.14,1.74,11.62q-14.51-5.78-14.51-26.45a256.63,256.63,0,0,1,4.75-48.14,59.06,59.06,0,0,0-13.22,3.85,30.41,30.41,0,0,1-.26-3.72q0-6.16,4-8.28t11.61-2.12q11-45.18,34-45.19a18.36,18.36,0,0,1,12.46,4.24,13,13,0,0,1,4.87,10.14,14.76,14.76,0,0,1-3.46,9.95,11.41,11.41,0,0,1-9.12,4,9.84,9.84,0,0,1-4.23-.89,16.32,16.32,0,0,0,3.14-4.69,15.27,15.27,0,0,0,1.61-6.8,9.59,9.59,0,0,0-1.86-6,5.8,5.8,0,0,0-4.82-2.44q-13.6,0-21.18,38,12.45,0,17.07-3.73A24,24,0,0,1,1977.6,568.39Z"/><polyline points="397.57 665.69 629.76 665.05 630.16 664.9 750 405.5 749.6 405.65 517.4 406.3 517.24 405.93 397.41 665.32"/><polyline points="10.08 750 316.43 749.15 316.96 748.95 475.07 406.71 474.54 406.91 168.19 407.76 167.97 407.27 9.87 749.51"/><polyline points="743.5 367.77 571.38 0.53 570.8 0 0 1.16 0.57 1.69 172.69 368.93 172.12 369.46 742.93 368.29"/></svg>